<svg xmlns="http://www.w3.org/2000/svg" version="1.1" xmlns:xlink="http://www.w3.org/1999/xlink" xmlns:svgjs="http://svgjs.dev/svgjs" width="1500" height="1500" viewBox="0 0 1500 1500"><rect width="1500" height="1500" fill="#000000"></rect><g transform="matrix(0.6666666666666666,0,0,0.6666666666666666,249.39393939393938,614.1019808063019)"><svg viewBox="0 0 396 108" data-background-color="#ffffff" preserveAspectRatio="xMidYMid meet" height="409" width="1500" xmlns="http://www.w3.org/2000/svg" xmlns:xlink="http://www.w3.org/1999/xlink"><g id="tight-bounds" transform="matrix(1,0,0,1,0.2400000000000091,-0.17242271545455878)"><svg viewBox="0 0 395.52 108.3448454309091" height="108.3448454309091" width="395.52"><g><svg viewBox="0 0 663.8459516905145 181.84740854025978" height="108.3448454309091" width="395.52"><g transform="matrix(1,0,0,1,266.34835169051456,27.37930243317762)"><svg viewBox="0 0 397.4976 127.08880367390454" height="127.08880367390454" width="397.4976"><g id="textblocktransform"><svg viewBox="0 0 397.4976 127.08880367390454" height="127.08880367390454" width="397.4976" id="textblock"><g><rect width="397.4976" height="7.905426928176564" x="0" y="96.97442399583385" fill="#ffffff" opacity="1" stroke-width="0" stroke="transparent" fill-opacity="1" class="rect-qz-0" data-fill-palette-color="primary" rx="1%" id="qz-0" data-palette-color="#03424c"></rect></g><g transform="matrix(1,0,0,1,0.9887999999999693,0)"><svg viewBox="0 0 395.52000000000004 87.66174829510229" height="87.66174829510229" width="395.52000000000004"><g transform="matrix(1,0,0,1,0,0)"><svg width="395.52000000000004" viewBox="1.55 -35 161.28 35.75" height="87.66174829510229" data-palette-color="#03424c"><path d="M1.55 0L1.55-1.5 23.6-33.5 2.25-33.5 2.2-35 25.6-35 25.6-33.5 3.55-1.5 25.9-1.5 25.9 0 1.55 0ZM46-1.75Q44.2-0.6 41.9 0 39.6 0.6 37.3 0.6L37.3 0.6Q33.6 0.6 31.42-1.23 29.25-3.05 29.25-6.7L29.25-6.7 29.25-16.95Q29.25-21 31.77-23.25 34.3-25.5 38.45-25.5L38.45-25.5Q42.6-25.5 44.92-23.28 47.25-21.05 47.25-17.1L47.25-17.1 47.25-11.75 30.85-10.9 30.85-6.65Q30.85-3.8 32.67-2.3 34.5-0.8 37.45-0.8L37.45-0.8Q39.25-0.8 41.27-1.38 43.3-1.95 45.3-3.05L45.3-3.05 46-1.75ZM45.65-17.25Q45.65-20.9 43.45-22.48 41.25-24.05 38.4-24.05L38.4-24.05Q35.25-24.05 33.05-22.33 30.85-20.6 30.85-16.95L30.85-16.95 30.85-12.45 45.65-13.25 45.65-17.25ZM52.25 0L52.25-25.05 53.85-25.05 53.8-22.7Q56.55-25.45 61.05-25.45L61.05-25.45Q62.75-25.45 64.75-25.05L64.75-25.05 64.3-23.45Q62.75-23.95 60.9-23.95L60.9-23.95Q58-23.95 55.92-22.78 53.85-21.6 53.85-19.85L53.85-19.85 53.85 0 52.25 0ZM82.94-9.2Q82.94-5 80.64-2.25 78.34 0.5 73.69 0.5L73.69 0.5Q69.04 0.5 66.67-2.27 64.29-5.05 64.29-9.2L64.29-9.2 64.29-15.8Q64.29-20.55 66.72-23.08 69.14-25.6 73.69-25.6L73.69-25.6Q78.04-25.6 80.49-22.98 82.94-20.35 82.94-15.8L82.94-15.8 82.94-9.2ZM81.34-15.95Q81.34-20.05 79.19-22.08 77.04-24.1 73.69-24.1L73.69-24.1Q70.19-24.1 68.04-22.08 65.89-20.05 65.89-15.95L65.89-15.95 65.89-9Q65.89-5.6 67.84-3.28 69.79-0.95 73.69-0.95L73.69-0.95Q77.49-0.95 79.42-3.23 81.34-5.5 81.34-9L81.34-9 81.34-15.95ZM88.14-6.35Q88.39-3.95 90.44-2.38 92.49-0.8 95.84-0.8L95.84-0.8Q98.89-0.8 100.94-2.25 102.99-3.7 102.99-6.2L102.99-6.2Q102.99-7.95 101.97-9.08 100.94-10.2 99.47-10.85 97.99-11.5 95.39-12.35L95.39-12.35Q92.74-13.2 91.14-13.9 89.54-14.6 88.44-15.85 87.34-17.1 87.34-19L87.34-19Q87.34-20.65 88.22-22.15 89.09-23.65 90.99-24.65 92.89-25.65 95.74-25.65L95.74-25.65Q97.29-25.65 98.54-25.33 99.79-25 100.49-24.63 101.19-24.25 101.34-24.15L101.34-24.15 100.69-22.8Q100.54-22.9 99.87-23.23 99.19-23.55 98.07-23.85 96.94-24.15 95.59-24.15L95.59-24.15Q92.79-24.15 90.74-22.73 88.69-21.3 88.94-18.55L88.94-18.55Q89.09-16.75 90.77-15.8 92.44-14.85 95.79-13.85L95.79-13.85Q98.59-13 100.37-12.2 102.14-11.4 103.37-9.95 104.59-8.5 104.59-6.25L104.59-6.25Q104.59-3.25 102.37-1.25 100.14 0.75 95.84 0.75L95.84 0.75Q92.99 0.75 90.92-0.23 88.84-1.2 87.77-2.8 86.69-4.4 86.59-6.35L86.59-6.35 88.14-6.35ZM115.49 0L115.44-33.45 106.34-33.45 106.34-35 126.44-35 126.44-33.45 117.04-33.45 117.04 0 115.49 0ZM141.74-1.75Q139.94-0.6 137.64 0 135.34 0.6 133.04 0.6L133.04 0.6Q129.34 0.6 127.16-1.23 124.99-3.05 124.99-6.7L124.99-6.7 124.99-16.95Q124.99-21 127.51-23.25 130.04-25.5 134.19-25.5L134.19-25.5Q138.34-25.5 140.66-23.28 142.99-21.05 142.99-17.1L142.99-17.1 142.99-11.75 126.59-10.9 126.59-6.65Q126.59-3.8 128.41-2.3 130.24-0.8 133.19-0.8L133.19-0.8Q134.99-0.8 137.01-1.38 139.04-1.95 141.04-3.05L141.04-3.05 141.74-1.75ZM141.39-17.25Q141.39-20.9 139.19-22.48 136.99-24.05 134.14-24.05L134.14-24.05Q130.99-24.05 128.79-22.33 126.59-20.6 126.59-16.95L126.59-16.95 126.59-12.45 141.39-13.25 141.39-17.25ZM162.83-0.3Q159.73 0.5 156.83 0.5L156.83 0.5Q154.13 0.5 152.33-0.1L152.33-0.1Q149.38-1.1 148.06-3.18 146.73-5.25 146.73-9L146.73-9 146.73-15.4Q146.73-20.35 149.33-22.93 151.93-25.5 156.03-25.5L156.03-25.5Q159.28-25.5 162.73-23.9L162.73-23.9 162.23-22.55Q159.23-24 156.23-24L156.23-24Q152.78-24 150.56-21.93 148.33-19.85 148.33-15.7L148.33-15.7 148.33-8.45Q148.28-4.5 150.66-2.73 153.03-0.95 156.88-0.95L156.88-0.95Q159.73-0.95 162.48-1.7L162.48-1.7 162.83-0.3Z" opacity="1" transform="matrix(1,0,0,1,0,0)" fill="#ffffff" class="wordmark-text-0" data-fill-palette-color="primary" id="text-0"></path></svg></g></svg></g><g transform="matrix(1,0,0,1,0,114.19252662474197)"><svg viewBox="0 0 232.20979200000002 12.896277049162581" height="12.896277049162581" width="232.20979200000002"><g transform="matrix(1,0,0,1,0,0)"><svg width="232.20979200000002" viewBox="0.3 -34 831.33 46.18" height="12.896277049162581" data-palette-color="#03424c"><path d="M11.3-28.4L0.3-28.4 0.3-30.88 23.98-30.88 23.98-28.4 12.9-28.4 13.55-29.08 13.55 0 10.65 0 10.65-29.08 11.3-28.4ZM31.07-29.98L31.07-29.98Q30.15-29.98 29.57-30.55 29-31.13 29-32L29-32Q29-32.85 29.57-33.36 30.15-33.88 31.07-33.88L31.07-33.88Q32.05-33.88 32.6-33.36 33.15-32.85 33.15-32L33.15-32Q33.15-31.13 32.6-30.55 32.05-29.98 31.07-29.98ZM32.52 0L29.62 0 29.62-23.75 32.52-23.75 32.52 0ZM51.57 0.55L51.57 0.55Q48.47 0.55 46.11-1.04 43.75-2.63 42.4-5.41 41.05-8.2 41.05-11.78L41.05-11.78Q41.05-15.68 42.38-18.48 43.72-21.28 46.08-22.78 48.45-24.28 51.57-24.28L51.57-24.28Q54.2-24.28 56.03-23.21 57.87-22.15 59-20.33 60.12-18.5 60.58-16.2 61.05-13.9 60.95-11.45L60.95-11.45 43.42-11.45 43.42-13.45 59.17-13.45 58.02-12.7Q58.1-14.33 57.83-15.94 57.57-17.55 56.86-18.9 56.15-20.25 54.87-21.08 53.6-21.9 51.6-21.9L51.6-21.9Q49.05-21.9 47.35-20.59 45.65-19.28 44.81-17.19 43.97-15.1 43.97-12.73L43.97-12.73 43.97-11.5Q43.97-8.78 44.81-6.6 45.65-4.42 47.33-3.15 49.02-1.88 51.57-1.88L51.57-1.88Q54.2-1.88 55.86-3.16 57.52-4.45 57.85-6.95L57.85-6.95 60.95-6.95Q60.57-4.58 59.28-2.9 58-1.23 56.02-0.34 54.05 0.55 51.57 0.55ZM88.89 0L86.07 0 86.07-13.98Q86.07-17.75 84.26-19.75 82.44-21.75 79.27-21.75L79.27-21.75Q76.94-21.75 75.26-20.48 73.57-19.2 72.68-16.9 71.79-14.6 71.79-11.53L71.79-11.53 70.52-11.53Q70.52-15.43 71.58-18.29 72.64-21.15 74.73-22.71 76.82-24.28 79.92-24.28L79.92-24.28Q82.67-24.28 84.68-23.05 86.69-21.83 87.79-19.51 88.89-17.2 88.89-13.98L88.89-13.98 88.89 0ZM71.79 0L68.89 0 68.89-23.73 71.34-23.73 71.79-17.88 71.79 0ZM106.92 0.55L106.92 0.55Q104.09 0.55 101.7-0.99 99.32-2.53 97.89-5.33 96.47-8.13 96.47-11.95L96.47-11.95Q96.47-15.78 97.88-18.54 99.29-21.3 101.63-22.79 103.97-24.28 106.74-24.28L106.74-24.28Q109.32-24.28 111.32-23.01 113.32-21.75 114.44-19.41 115.57-17.07 115.57-13.8L115.57-13.8 114.24-13.8Q114.24-16.43 113.23-18.19 112.22-19.95 110.59-20.85 108.97-21.75 107.12-21.75L107.12-21.75Q105.09-21.75 103.35-20.58 101.62-19.4 100.55-17.23 99.49-15.05 99.49-11.95L99.49-11.95Q99.49-8.83 100.54-6.6 101.59-4.38 103.34-3.2 105.09-2.02 107.14-2.02L107.14-2.02Q108.89-2.02 110.52-2.93 112.14-3.83 113.19-5.59 114.24-7.35 114.24-9.93L114.24-9.93 115.57-9.93Q115.57-6.63 114.43-4.28 113.29-1.93 111.33-0.69 109.37 0.55 106.92 0.55ZM117.12 0L114.67 0 114.24-5.4 114.24-34 117.12-34 117.12 0ZM144.66 0L142.14 0 141.76-4.93 141.76-15.43Q141.76-19 140.21-20.5 138.66-22 135.79-22L135.79-22Q134.19-22 132.81-21.54 131.44-21.08 130.61-20.06 129.79-19.05 129.79-17.4L129.79-17.4 126.49-17.4Q126.49-19.93 127.74-21.44 128.99-22.95 131.1-23.61 133.21-24.28 135.79-24.28L135.79-24.28Q138.34-24.28 140.34-23.39 142.34-22.5 143.5-20.54 144.66-18.57 144.66-15.38L144.66-15.38 144.66 0ZM133.89 0.55L133.89 0.55Q131.04 0.55 129.19-0.49 127.34-1.53 126.44-3.15 125.54-4.78 125.54-6.5L125.54-6.5Q125.54-9 126.75-10.5 127.96-12 130-12.68 132.04-13.35 134.46-13.35L134.46-13.35Q136.29-13.35 138.25-12.94 140.21-12.53 142.01-11.8L142.01-11.8 142.01-9.85Q140.46-10.53 138.44-10.93 136.41-11.33 134.76-11.33L134.76-11.33Q132.21-11.33 130.41-10.23 128.61-9.13 128.61-6.5L128.61-6.5Q128.61-4.53 129.95-3.15 131.29-1.78 134.26-1.78L134.26-1.78Q136.29-1.78 137.99-2.75 139.69-3.73 140.73-5.18 141.76-6.63 141.76-8.1L141.76-8.1 142.49-8.1Q142.49-5.83 141.43-3.85 140.36-1.88 138.43-0.66 136.49 0.55 133.89 0.55ZM174.13 0.55L174.13 0.55Q171.31 0.55 168.92-0.99 166.53-2.53 165.11-5.33 163.68-8.13 163.68-11.95L163.68-11.95Q163.68-15.78 165.1-18.54 166.51-21.3 168.85-22.79 171.18-24.28 173.96-24.28L173.96-24.28Q176.53-24.28 178.53-23.01 180.53-21.75 181.66-19.41 182.78-17.07 182.78-13.8L182.78-13.8 181.46-13.8Q181.46-16.43 180.45-18.19 179.43-19.95 177.81-20.85 176.18-21.75 174.33-21.75L174.33-21.75Q172.31-21.75 170.57-20.58 168.83-19.4 167.77-17.23 166.71-15.05 166.71-11.95L166.71-11.95Q166.71-8.83 167.76-6.6 168.81-4.38 170.56-3.2 172.31-2.02 174.36-2.02L174.36-2.02Q176.11-2.02 177.73-2.93 179.36-3.83 180.41-5.59 181.46-7.35 181.46-9.93L181.46-9.93 182.78-9.93Q182.78-6.63 181.65-4.28 180.51-1.93 178.55-0.69 176.58 0.55 174.13 0.55ZM184.33 0L181.88 0 181.46-5.4 181.46-34 184.33-34 184.33 0ZM202.81 0.55L202.81 0.55Q199.71 0.55 197.34-1.04 194.98-2.63 193.63-5.41 192.28-8.2 192.28-11.78L192.28-11.78Q192.28-15.68 193.62-18.48 194.96-21.28 197.32-22.78 199.68-24.28 202.81-24.28L202.81-24.28Q205.43-24.28 207.27-23.21 209.11-22.15 210.23-20.33 211.36-18.5 211.82-16.2 212.28-13.9 212.18-11.45L212.18-11.45 194.66-11.45 194.66-13.45 210.41-13.45 209.26-12.7Q209.33-14.33 209.07-15.94 208.81-17.55 208.09-18.9 207.38-20.25 206.11-21.08 204.83-21.9 202.83-21.9L202.83-21.9Q200.28-21.9 198.58-20.59 196.88-19.28 196.04-17.19 195.21-15.1 195.21-12.73L195.21-12.73 195.21-11.5Q195.21-8.78 196.04-6.6 196.88-4.42 198.57-3.15 200.26-1.88 202.81-1.88L202.81-1.88Q205.43-1.88 207.09-3.16 208.76-4.45 209.08-6.95L209.08-6.95 212.18-6.95Q211.81-4.58 210.52-2.9 209.23-1.23 207.26-0.34 205.28 0.55 202.81 0.55ZM237.2 0L227.4-23.73 230.68-23.73 239.03-2.5 238.43-2.5 246.78-23.73 250.05-23.73 240.25 0 237.2 0ZM273.3 0L270.77 0 270.4-4.93 270.4-15.43Q270.4-19 268.85-20.5 267.3-22 264.42-22L264.42-22Q262.82-22 261.45-21.54 260.07-21.08 259.25-20.06 258.42-19.05 258.42-17.4L258.42-17.4 255.12-17.4Q255.12-19.93 256.37-21.44 257.62-22.95 259.74-23.61 261.85-24.28 264.42-24.28L264.42-24.28Q266.97-24.28 268.97-23.39 270.97-22.5 272.13-20.54 273.3-18.57 273.3-15.38L273.3-15.38 273.3 0ZM262.52 0.55L262.52 0.55Q259.67 0.55 257.82-0.49 255.97-1.53 255.07-3.15 254.17-4.78 254.17-6.5L254.17-6.5Q254.17-9 255.39-10.5 256.6-12 258.63-12.68 260.67-13.35 263.1-13.35L263.1-13.35Q264.92-13.35 266.88-12.94 268.85-12.53 270.65-11.8L270.65-11.8 270.65-9.85Q269.1-10.53 267.07-10.93 265.05-11.33 263.4-11.33L263.4-11.33Q260.85-11.33 259.05-10.23 257.25-9.13 257.25-6.5L257.25-6.5Q257.25-4.53 258.59-3.15 259.92-1.78 262.9-1.78L262.9-1.78Q264.92-1.78 266.62-2.75 268.32-3.73 269.36-5.18 270.4-6.63 270.4-8.1L270.4-8.1 271.12-8.1Q271.12-5.83 270.06-3.85 269-1.88 267.06-0.66 265.12 0.55 262.52 0.55ZM285.84 0L282.94 0 282.94-23.75 285.84-23.75 285.84 0ZM285.84-10.88L284.77-10.88Q284.77-15.33 285.55-18.28 286.32-21.23 287.94-22.7 289.57-24.18 292.09-24.18L292.09-24.18Q292.97-24.18 293.71-24.05 294.44-23.93 295.19-23.65L295.19-23.65 294.87-20.83Q294.14-21.1 293.27-21.29 292.39-21.48 291.75-21.48L291.75-21.48Q289.52-21.48 288.23-20.13 286.94-18.78 286.39-16.39 285.84-14 285.84-10.88L285.84-10.88ZM301.82-29.98L301.82-29.98Q300.89-29.98 300.32-30.55 299.74-31.13 299.74-32L299.74-32Q299.74-32.85 300.32-33.36 300.89-33.88 301.82-33.88L301.82-33.88Q302.79-33.88 303.34-33.36 303.89-32.85 303.89-32L303.89-32Q303.89-31.13 303.34-30.55 302.79-29.98 301.82-29.98ZM303.27 0L300.37 0 300.37-23.75 303.27-23.75 303.27 0ZM322.59 0.55L322.59 0.55Q319.41 0.55 316.99-0.88 314.56-2.3 313.18-5.08 311.79-7.85 311.79-11.88L311.79-11.88Q311.79-15.9 313.18-18.66 314.56-21.43 316.99-22.85 319.41-24.28 322.59-24.28L322.59-24.28Q325.76-24.28 328.19-22.85 330.62-21.43 331.99-18.66 333.37-15.9 333.37-11.88L333.37-11.88Q333.37-7.85 331.99-5.08 330.62-2.3 328.19-0.88 325.76 0.55 322.59 0.55ZM322.54-1.98L322.54-1.98Q325.16-1.98 326.91-3.21 328.66-4.45 329.53-6.68 330.39-8.9 330.39-11.88L330.39-11.88Q330.39-16.35 328.48-19.07 326.56-21.8 322.64-21.8L322.64-21.8Q320.01-21.8 318.28-20.56 316.54-19.33 315.68-17.09 314.81-14.85 314.81-11.88L314.81-11.88Q314.81-7.43 316.73-4.7 318.64-1.98 322.54-1.98ZM349.59 0.55L349.59 0.55Q346.14 0.55 343.9-0.45 341.66-1.45 340.54-3.15 339.41-4.85 339.31-6.95L339.31-6.95 342.21-6.95Q342.36-4.42 344.25-3.14 346.14-1.85 349.41-1.85L349.41-1.85Q351.11-1.85 352.56-2.41 354.01-2.98 354.9-3.96 355.79-4.95 355.79-6.2L355.79-6.2Q355.79-7.8 354.61-8.7 353.44-9.6 350.89-10.25L350.89-10.25 346.56-11.55Q343.44-12.45 341.79-14.11 340.14-15.78 340.14-18.1L340.14-18.1Q340.14-20.9 342.56-22.59 344.99-24.28 348.89-24.28L348.89-24.28Q353.14-24.28 355.51-22.6 357.89-20.93 358.01-18.43L358.01-18.43 355.01-18.43Q354.74-20.2 353.19-21.06 351.64-21.93 348.89-21.93L348.89-21.93Q346.16-21.93 344.66-20.68 343.16-19.43 343.16-17.95L343.16-17.95Q343.16-15.1 348.06-13.78L348.06-13.78 352.31-12.45Q355.51-11.55 357.2-10.05 358.89-8.55 358.89-6.2L358.89-6.2Q358.89-4.48 357.77-2.93 356.66-1.38 354.59-0.41 352.51 0.55 349.59 0.55ZM386.91 0.55L386.91 0.55Q384.13 0.55 381.71-0.98 379.28-2.5 377.8-5.3 376.31-8.1 376.31-11.93L376.31-11.93Q376.31-15.8 377.8-18.56 379.28-21.33 381.71-22.8 384.13-24.28 386.91-24.28L386.91-24.28Q388.76-24.28 390.27-23.74 391.78-23.2 392.95-22.24 394.11-21.28 394.93-20.01 395.76-18.75 396.21-17.3L396.21-17.3 393.18-16.85Q392.46-19.15 390.81-20.45 389.16-21.75 386.86-21.75L386.86-21.75Q384.91-21.75 383.2-20.63 381.48-19.5 380.41-17.31 379.33-15.13 379.33-11.93L379.33-11.93Q379.33-9.03 380.3-6.79 381.26-4.55 382.96-3.29 384.66-2.02 386.86-2.02L386.86-2.02Q389.88-2.02 391.53-3.53 393.18-5.03 393.18-7.75L393.18-7.75 396.21-7.75Q396.21-5.3 395.03-3.43 393.86-1.55 391.76-0.5 389.66 0.55 386.91 0.55ZM412.56 0.55L412.56 0.55Q409.38 0.55 406.96-0.88 404.53-2.3 403.14-5.08 401.75-7.85 401.75-11.88L401.75-11.88Q401.75-15.9 403.14-18.66 404.53-21.43 406.96-22.85 409.38-24.28 412.56-24.28L412.56-24.28Q415.73-24.28 418.16-22.85 420.58-21.43 421.96-18.66 423.33-15.9 423.33-11.88L423.33-11.88Q423.33-7.85 421.96-5.08 420.58-2.3 418.16-0.88 415.73 0.55 412.56 0.55ZM412.5-1.98L412.5-1.98Q415.13-1.98 416.88-3.21 418.63-4.45 419.49-6.68 420.36-8.9 420.36-11.88L420.36-11.88Q420.36-16.35 418.44-19.07 416.53-21.8 412.61-21.8L412.61-21.8Q409.98-21.8 408.24-20.56 406.5-19.33 405.64-17.09 404.78-14.85 404.78-11.88L404.78-11.88Q404.78-7.43 406.69-4.7 408.61-1.98 412.5-1.98ZM439.55 0.55L439.55 0.55Q436.1 0.55 433.87-0.45 431.63-1.45 430.5-3.15 429.38-4.85 429.28-6.95L429.28-6.95 432.18-6.95Q432.33-4.42 434.22-3.14 436.1-1.85 439.38-1.85L439.38-1.85Q441.08-1.85 442.53-2.41 443.98-2.98 444.87-3.96 445.75-4.95 445.75-6.2L445.75-6.2Q445.75-7.8 444.58-8.7 443.4-9.6 440.85-10.25L440.85-10.25 436.53-11.55Q433.4-12.45 431.75-14.11 430.1-15.78 430.1-18.1L430.1-18.1Q430.1-20.9 432.53-22.59 434.95-24.28 438.85-24.28L438.85-24.28Q443.1-24.28 445.48-22.6 447.85-20.93 447.98-18.43L447.98-18.43 444.98-18.43Q444.7-20.2 443.15-21.06 441.6-21.93 438.85-21.93L438.85-21.93Q436.13-21.93 434.63-20.68 433.13-19.43 433.13-17.95L433.13-17.95Q433.13-15.1 438.03-13.78L438.03-13.78 442.28-12.45Q445.48-11.55 447.17-10.05 448.85-8.55 448.85-6.2L448.85-6.2Q448.85-4.48 447.74-2.93 446.63-1.38 444.55-0.41 442.48 0.55 439.55 0.55ZM458.98-29.98L458.98-29.98Q458.05-29.98 457.48-30.55 456.9-31.13 456.9-32L456.9-32Q456.9-32.85 457.48-33.36 458.05-33.88 458.98-33.88L458.98-33.88Q459.95-33.88 460.5-33.36 461.05-32.85 461.05-32L461.05-32Q461.05-31.13 460.5-30.55 459.95-29.98 458.98-29.98ZM460.43 0L457.53 0 457.53-23.75 460.43-23.75 460.43 0ZM478.47 0.55L478.47 0.55Q476.62 0.55 475.19-0.18 473.75-0.9 472.94-2.33 472.12-3.75 472.12-5.85L472.12-5.85 472.12-30.48 474.95-30.48 474.95-5.9Q474.95-1.85 478.7-1.85L478.7-1.85Q479.8-1.85 480.8-2.1 481.8-2.35 483.05-2.8L483.05-2.8 483.45-0.68Q482.22-0.13 481 0.21 479.77 0.55 478.47 0.55ZM482.97-21.63L468.05-21.63 468.05-23.73 482.97-23.73 482.97-21.63ZM506.87 0L504.35 0 503.97-4.93 503.97-15.43Q503.97-19 502.42-20.5 500.87-22 498-22L498-22Q496.39-22 495.02-21.54 493.64-21.08 492.82-20.06 492-19.05 492-17.4L492-17.4 488.69-17.4Q488.69-19.93 489.94-21.44 491.19-22.95 493.31-23.61 495.42-24.28 498-24.28L498-24.28Q500.55-24.28 502.55-23.39 504.55-22.5 505.71-20.54 506.87-18.57 506.87-15.38L506.87-15.38 506.87 0ZM496.1 0.55L496.1 0.55Q493.25 0.55 491.39-0.49 489.55-1.53 488.64-3.15 487.75-4.78 487.75-6.5L487.75-6.5Q487.75-9 488.96-10.5 490.17-12 492.21-12.68 494.25-13.35 496.67-13.35L496.67-13.35Q498.5-13.35 500.46-12.94 502.42-12.53 504.22-11.8L504.22-11.8 504.22-9.85Q502.67-10.53 500.64-10.93 498.62-11.33 496.97-11.33L496.97-11.33Q494.42-11.33 492.62-10.23 490.82-9.13 490.82-6.5L490.82-6.5Q490.82-4.53 492.16-3.15 493.5-1.78 496.47-1.78L496.47-1.78Q498.5-1.78 500.19-2.75 501.89-3.73 502.93-5.18 503.97-6.63 503.97-8.1L503.97-8.1 504.69-8.1Q504.69-5.83 503.63-3.85 502.57-1.88 500.63-0.66 498.69 0.55 496.1 0.55ZM524.89 0.55L524.89 0.55Q521.44 0.55 519.2-0.45 516.97-1.45 515.84-3.15 514.72-4.85 514.62-6.95L514.62-6.95 517.52-6.95Q517.67-4.42 519.55-3.14 521.44-1.85 524.72-1.85L524.72-1.85Q526.42-1.85 527.87-2.41 529.32-2.98 530.2-3.96 531.09-4.95 531.09-6.2L531.09-6.2Q531.09-7.8 529.92-8.7 528.74-9.6 526.19-10.25L526.19-10.25 521.87-11.55Q518.74-12.45 517.09-14.11 515.44-15.78 515.44-18.1L515.44-18.1Q515.44-20.9 517.87-22.59 520.29-24.28 524.19-24.28L524.19-24.28Q528.44-24.28 530.82-22.6 533.19-20.93 533.32-18.43L533.32-18.43 530.32-18.43Q530.04-20.2 528.49-21.06 526.94-21.93 524.19-21.93L524.19-21.93Q521.47-21.93 519.97-20.68 518.47-19.43 518.47-17.95L518.47-17.95Q518.47-15.1 523.37-13.78L523.37-13.78 527.62-12.45Q530.82-11.55 532.5-10.05 534.19-8.55 534.19-6.2L534.19-6.2Q534.19-4.48 533.08-2.93 531.97-1.38 529.89-0.41 527.82 0.55 524.89 0.55ZM561.14 0.55L561.14 0.55Q559.29 0.55 557.85-0.18 556.41-0.9 555.6-2.33 554.79-3.75 554.79-5.85L554.79-5.85 554.79-30.48 557.61-30.48 557.61-5.9Q557.61-1.85 561.36-1.85L561.36-1.85Q562.46-1.85 563.46-2.1 564.46-2.35 565.71-2.8L565.71-2.8 566.11-0.68Q564.89-0.13 563.66 0.21 562.44 0.55 561.14 0.55ZM565.64-21.63L550.71-21.63 550.71-23.73 565.64-23.73 565.64-21.63ZM580.46 0.55L580.46 0.55Q577.36 0.55 575-1.04 572.63-2.63 571.28-5.41 569.93-8.2 569.93-11.78L569.93-11.78Q569.93-15.68 571.27-18.48 572.61-21.28 574.97-22.78 577.33-24.28 580.46-24.28L580.46-24.28Q583.08-24.28 584.92-23.21 586.76-22.15 587.88-20.33 589.01-18.5 589.47-16.2 589.93-13.9 589.83-11.45L589.83-11.45 572.31-11.45 572.31-13.45 588.06-13.45 586.91-12.7Q586.98-14.33 586.72-15.94 586.46-17.55 585.75-18.9 585.03-20.25 583.76-21.08 582.48-21.9 580.48-21.9L580.48-21.9Q577.93-21.9 576.23-20.59 574.53-19.28 573.7-17.19 572.86-15.1 572.86-12.73L572.86-12.73 572.86-11.5Q572.86-8.78 573.7-6.6 574.53-4.42 576.22-3.15 577.91-1.88 580.46-1.88L580.46-1.88Q583.08-1.88 584.75-3.16 586.41-4.45 586.73-6.95L586.73-6.95 589.83-6.95Q589.46-4.58 588.17-2.9 586.88-1.23 584.91-0.34 582.93 0.55 580.46 0.55ZM605.78 0.55L605.78 0.55Q603.01 0.55 600.58-0.98 598.16-2.5 596.67-5.3 595.18-8.1 595.18-11.93L595.18-11.93Q595.18-15.8 596.67-18.56 598.16-21.33 600.58-22.8 603.01-24.28 605.78-24.28L605.78-24.28Q607.63-24.28 609.14-23.74 610.66-23.2 611.82-22.24 612.98-21.28 613.81-20.01 614.63-18.75 615.08-17.3L615.08-17.3 612.06-16.85Q611.33-19.15 609.68-20.45 608.03-21.75 605.73-21.75L605.73-21.75Q603.78-21.75 602.07-20.63 600.36-19.5 599.28-17.31 598.21-15.13 598.21-11.93L598.21-11.93Q598.21-9.03 599.17-6.79 600.13-4.55 601.83-3.29 603.53-2.02 605.73-2.02L605.73-2.02Q608.76-2.02 610.41-3.53 612.06-5.03 612.06-7.75L612.06-7.75 615.08-7.75Q615.08-5.3 613.91-3.43 612.73-1.55 610.63-0.5 608.53 0.55 605.78 0.55ZM643.23 0L640.4 0 640.4-13.98Q640.4-17.75 638.59-19.75 636.78-21.75 633.6-21.75L633.6-21.75Q631.28-21.75 629.59-20.48 627.9-19.2 627.02-16.9 626.13-14.6 626.13-11.53L626.13-11.53 624.85-11.53Q624.85-15.43 625.92-18.29 626.98-21.15 629.07-22.71 631.15-24.28 634.25-24.28L634.25-24.28Q637-24.28 639.02-23.05 641.03-21.83 642.13-19.51 643.23-17.2 643.23-13.98L643.23-13.98 643.23 0ZM626.13 0L623.23 0 623.23-23.73 625.68-23.73 626.13-17.88 626.13 0ZM661.1 0.55L661.1 0.55Q657.93 0.55 655.5-0.88 653.08-2.3 651.69-5.08 650.3-7.85 650.3-11.88L650.3-11.88Q650.3-15.9 651.69-18.66 653.08-21.43 655.5-22.85 657.93-24.28 661.1-24.28L661.1-24.28Q664.28-24.28 666.7-22.85 669.13-21.43 670.5-18.66 671.88-15.9 671.88-11.88L671.88-11.88Q671.88-7.85 670.5-5.08 669.13-2.3 666.7-0.88 664.28 0.55 661.1 0.55ZM661.05-1.98L661.05-1.98Q663.68-1.98 665.43-3.21 667.18-4.45 668.04-6.68 668.9-8.9 668.9-11.88L668.9-11.88Q668.9-16.35 666.99-19.07 665.08-21.8 661.15-21.8L661.15-21.8Q658.53-21.8 656.79-20.56 655.05-19.33 654.19-17.09 653.33-14.85 653.33-11.88L653.33-11.88Q653.33-7.43 655.24-4.7 657.15-1.98 661.05-1.98ZM682.62 0L679.72 0 679.72-34 682.62-34 682.62 0ZM701.32 0.55L701.32 0.55Q698.15 0.55 695.72-0.88 693.3-2.3 691.91-5.08 690.52-7.85 690.52-11.88L690.52-11.88Q690.52-15.9 691.91-18.66 693.3-21.43 695.72-22.85 698.15-24.28 701.32-24.28L701.32-24.28Q704.5-24.28 706.92-22.85 709.35-21.43 710.72-18.66 712.1-15.9 712.1-11.88L712.1-11.88Q712.1-7.85 710.72-5.08 709.35-2.3 706.92-0.88 704.5 0.55 701.32 0.55ZM701.27-1.98L701.27-1.98Q703.9-1.98 705.65-3.21 707.4-4.45 708.26-6.68 709.12-8.9 709.12-11.88L709.12-11.88Q709.12-16.35 707.21-19.07 705.3-21.8 701.37-21.8L701.37-21.8Q698.75-21.8 697.01-20.56 695.27-19.33 694.41-17.09 693.55-14.85 693.55-11.88L693.55-11.88Q693.55-7.43 695.46-4.7 697.37-1.98 701.27-1.98ZM727.94 12.18L727.94 12.18Q724.52 12.18 721.94 11.19 719.37 10.2 717.93 8.53 716.49 6.85 716.49 4.8L716.49 4.8Q716.49 1.93 718.61 0.44 720.72-1.05 724.14-1.05L724.14-1.05 725.22 0.18Q722.39 0.18 720.84 1.4 719.29 2.63 719.29 4.73L719.29 4.73Q719.29 6.8 721.46 8.3 723.62 9.8 727.94 9.8L727.94 9.8Q731.19 9.8 733.66 8.89 736.12 7.98 737.51 6.49 738.89 5 738.89 3.28L738.89 3.28Q738.89 2.02 737.96 1.1 737.02 0.18 735.09 0.18L735.09 0.18 725.22 0.18Q722.79 0.18 721.17-0.53 719.54-1.23 718.71-2.38 717.87-3.53 717.87-4.83L717.87-4.83Q717.87-6.33 718.71-7.34 719.54-8.35 720.87-8.88 722.19-9.4 723.64-9.4L723.64-9.4 724.02-8.2Q723.24-8.2 722.44-7.84 721.64-7.48 721.08-6.76 720.52-6.05 720.52-4.95L720.52-4.95Q720.52-3.73 721.52-2.88 722.52-2.02 725.22-2.02L725.22-2.02 735.09-2.02Q738.24-2.02 740.03-0.6 741.82 0.83 741.82 3.18L741.82 3.18Q741.82 5.38 740.17 7.45 738.52 9.53 735.42 10.85 732.32 12.18 727.94 12.18ZM728.84-6.75L728.84-6.75Q726.14-6.75 724.03-7.86 721.92-8.97 720.69-10.96 719.47-12.95 719.47-15.53L719.47-15.53Q719.47-18.13 720.69-20.1 721.92-22.08 724.03-23.18 726.14-24.28 728.84-24.28L728.84-24.28Q731.47-24.28 733.56-23.18 735.64-22.08 736.87-20.1 738.09-18.13 738.09-15.53L738.09-15.53Q738.09-12.95 736.87-10.96 735.64-8.97 733.56-7.86 731.47-6.75 728.84-6.75ZM728.82-8.9L728.82-8.9Q731.79-8.9 733.51-10.79 735.22-12.68 735.22-15.53L735.22-15.53Q735.22-18.4 733.51-20.23 731.79-22.05 728.84-22.05L728.84-22.05Q725.87-22.05 724.13-20.23 722.39-18.4 722.39-15.53L722.39-15.53Q722.39-12.68 724.13-10.79 725.87-8.9 728.82-8.9ZM736.32-20.53L736.32-20.53 734.89-20.88Q734.89-22.95 735.63-24.51 736.37-26.08 737.81-26.95 739.24-27.83 741.37-27.83L741.37-27.83 741.07-24.88Q738.77-24.88 737.54-23.81 736.32-22.75 736.32-20.53ZM749.29-29.98L749.29-29.98Q748.37-29.98 747.79-30.55 747.22-31.13 747.22-32L747.22-32Q747.22-32.85 747.79-33.36 748.37-33.88 749.29-33.88L749.29-33.88Q750.27-33.88 750.82-33.36 751.37-32.85 751.37-32L751.37-32Q751.37-31.13 750.82-30.55 750.27-29.98 749.29-29.98ZM750.74 0L747.84 0 747.84-23.75 750.74-23.75 750.74 0ZM769.86 0.55L769.86 0.55Q767.09 0.55 764.66-0.98 762.24-2.5 760.75-5.3 759.26-8.1 759.26-11.93L759.26-11.93Q759.26-15.8 760.75-18.56 762.24-21.33 764.66-22.8 767.09-24.28 769.86-24.28L769.86-24.28Q771.71-24.28 773.23-23.74 774.74-23.2 775.9-22.24 777.06-21.28 777.89-20.01 778.71-18.75 779.16-17.3L779.16-17.3 776.14-16.85Q775.41-19.15 773.76-20.45 772.11-21.75 769.81-21.75L769.81-21.75Q767.86-21.75 766.15-20.63 764.44-19.5 763.36-17.31 762.29-15.13 762.29-11.93L762.29-11.93Q762.29-9.03 763.25-6.79 764.21-4.55 765.91-3.29 767.61-2.02 769.81-2.02L769.81-2.02Q772.84-2.02 774.49-3.53 776.14-5.03 776.14-7.75L776.14-7.75 779.16-7.75Q779.16-5.3 777.99-3.43 776.81-1.55 774.71-0.5 772.61 0.55 769.86 0.55ZM804.31 0L801.79 0 801.41-4.93 801.41-15.43Q801.41-19 799.86-20.5 798.31-22 795.44-22L795.44-22Q793.84-22 792.46-21.54 791.09-21.08 790.26-20.06 789.44-19.05 789.44-17.4L789.44-17.4 786.14-17.4Q786.14-19.93 787.39-21.44 788.64-22.95 790.75-23.61 792.86-24.28 795.44-24.28L795.44-24.28Q797.99-24.28 799.99-23.39 801.99-22.5 803.15-20.54 804.31-18.57 804.31-15.38L804.31-15.38 804.31 0ZM793.54 0.55L793.54 0.55Q790.69 0.55 788.84-0.49 786.99-1.53 786.09-3.15 785.19-4.78 785.19-6.5L785.19-6.5Q785.19-9 786.4-10.5 787.61-12 789.65-12.68 791.69-13.35 794.11-13.35L794.11-13.35Q795.94-13.35 797.9-12.94 799.86-12.53 801.66-11.8L801.66-11.8 801.66-9.85Q800.11-10.53 798.09-10.93 796.06-11.33 794.41-11.33L794.41-11.33Q791.86-11.33 790.06-10.23 788.26-9.13 788.26-6.5L788.26-6.5Q788.26-4.53 789.6-3.15 790.94-1.78 793.91-1.78L793.91-1.78Q795.94-1.78 797.64-2.75 799.34-3.73 800.37-5.18 801.41-6.63 801.41-8.1L801.41-8.1 802.14-8.1Q802.14-5.83 801.07-3.85 800.01-1.88 798.07-0.66 796.14 0.55 793.54 0.55ZM822.33 0.55L822.33 0.55Q818.88 0.55 816.65-0.45 814.41-1.45 813.28-3.15 812.16-4.85 812.06-6.95L812.06-6.95 814.96-6.95Q815.11-4.42 817-3.14 818.88-1.85 822.16-1.85L822.16-1.85Q823.86-1.85 825.31-2.41 826.76-2.98 827.65-3.96 828.53-4.95 828.53-6.2L828.53-6.2Q828.53-7.8 827.36-8.7 826.18-9.6 823.63-10.25L823.63-10.25 819.31-11.55Q816.18-12.45 814.53-14.11 812.88-15.78 812.88-18.1L812.88-18.1Q812.88-20.9 815.31-22.59 817.73-24.28 821.63-24.28L821.63-24.28Q825.88-24.28 828.26-22.6 830.63-20.93 830.76-18.43L830.76-18.43 827.76-18.43Q827.48-20.2 825.93-21.06 824.38-21.93 821.63-21.93L821.63-21.93Q818.91-21.93 817.41-20.68 815.91-19.43 815.91-17.95L815.91-17.95Q815.91-15.1 820.81-13.78L820.81-13.78 825.06-12.45Q828.26-11.55 829.95-10.05 831.63-8.55 831.63-6.2L831.63-6.2Q831.63-4.48 830.52-2.93 829.41-1.38 827.33-0.41 825.26 0.55 822.33 0.55Z" opacity="1" transform="matrix(1,0,0,1,0,0)" fill="#ffffff" class="slogan-text-1" data-fill-palette-color="secondary" id="text-1"></path></svg></g></svg></g></svg></g></svg></g><g><svg viewBox="0 0 245.65351679999998 181.84740854025978" height="181.84740854025978" width="245.65351679999998"><g><svg xmlns="http://www.w3.org/2000/svg" xmlns:xlink="http://www.w3.org/1999/xlink" version="1.1" x="0" y="0" viewBox="3.8 15.799999999999997 92.39999999999998 68.4" enable-background="new 0 0 100 100" xml:space="preserve" height="181.84740854025978" width="245.65351679999998" class="icon-icon-0" data-fill-palette-color="accent" id="icon-0"><path d="M3.8 15.8v55.5h35v7h-12v5.9h29.9v-5.9h-12v-7h16v-5.9h-51V21.7h64.1v17.1h-7.4v45.4h29.8V38.8H79.7v-23H3.8zM90.3 78.3H72.3V44.8h17.9V78.3zM85.2 74.3h-7.8v-5.9h7.8V74.3z" fill="#ffffff" data-fill-palette-color="accent"></path></svg></g></svg></g></svg></g><defs></defs></svg><rect width="395.52" height="108.3448454309091" fill="none" stroke="none" visibility="hidden"></rect></g></svg></g></svg>